<svg aria-hidden="true" xmlns="http://www.w3.org/2000/svg" xmlns:xlink="http://www.w3.org/1999/xlink" viewBox="0 0 24 24" style="position: absolute; width: 0; height: 0; overflow: hidden;">
<defs>


<!-- Arrows -->

<symbol id="circle-arrow-down" viewBox="0 0 24 24" fill="none" stroke="currentColor">
  <path stroke-linecap="round" stroke-linejoin="round" d="M9 12.75l3 3m0 0l3-3m-3 3v-7.5M21 12a9 9 0 11-18 0 9 9 0 0118 0z" />
</symbol>

<symbol id="circle-arrow-left" viewBox="0 0 24 24" fill="none" stroke="currentColor">
  <path stroke-linecap="round" stroke-linejoin="round" d="M11.25 9l-3 3m0 0l3 3m-3-3h7.5M21 12a9 9 0 11-18 0 9 9 0 0118 0z" />
</symbol>

<symbol id="circle-arrow-right" viewBox="0 0 24 24" fill="none" stroke="currentColor">
  <path stroke-linecap="round" stroke-linejoin="round" d="M12.75 15l3-3m0 0l-3-3m3 3h-7.5M21 12a9 9 0 11-18 0 9 9 0 0118 0z" />
</symbol>


<symbol id="circle-arrow-up" viewBox="0 0 24 24" fill="none" stroke="currentColor">
  <path stroke-linecap="round" stroke-linejoin="round" d="M15 11.25l-3-3m0 0l-3 3m3-3v7.5M21 12a9 9 0 11-18 0 9 9 0 0118 0z" />
</symbol>

<symbol id="arrow-left" viewBox="0 0 24 24" fill="none" stroke="currentColor">
  <path stroke-linecap="round" stroke-linejoin="round" d="M10.5 19.5L3 12m0 0l7.5-7.5M3 12h18" />
</symbol>


<symbol id="arrow-right" viewBox="0 0 24 24" fill="none" stroke="currentColor">
  <path stroke-linecap="round" stroke-linejoin="round" d="M13.5 4.5L21 12m0 0l-7.5 7.5M21 12H3" />
</symbol>

<symbol id="arrow-up" viewBox="0 0 24 24" fill="none" stroke="currentColor">
  <path stroke-linecap="round" stroke-linejoin="round" d="M4.5 10.5L12 3m0 0l7.5 7.5M12 3v18" />
</symbol>

<symbol id="arrow-down" viewBox="0 0 24 24" fill="none" stroke="currentColor">
  <path stroke-linecap="round" stroke-linejoin="round" d="M19.5 13.5L12 21m0 0l-7.5-7.5M12 21V3" />
</symbol>


<symbol id="arrow-up-left" viewBox="0 0 24 24" fill="none" stroke="currentColor">
  <path stroke-linecap="round" stroke-linejoin="round" d="M19.5 19.5l-15-15m0 0v11.25m0-11.25h11.25" />
</symbol>

<symbol id="arrow-up-right" viewBox="0 0 24 24" fill="none" stroke="currentColor">
  <path stroke-linecap="round" stroke-linejoin="round" d="M4.5 19.5l15-15m0 0H8.25m11.25 0v11.25" />
</symbol>

<symbol id="arrow-down-left" viewBox="0 0 24 24" fill="none" stroke="currentColor">
  <path stroke-linecap="round" stroke-linejoin="round" d="M19.5 4.5l-15 15m0 0h11.25m-11.25 0V8.25" />
</symbol>

<symbol id="arrow-down-right" viewBox="0 0 24 24" fill="none" stroke="currentColor">
  <path stroke-linecap="round" stroke-linejoin="round" d="M4.5 4.5l15 15m0 0V8.25m0 11.25H8.25" />
</symbol>

<symbol id="arrow-small-down" viewBox="0 0 24 24" fill="none" stroke="currentColor">
  <path stroke-linecap="round" stroke-linejoin="round" d="M12 4.5v15m0 0l6.75-6.75M12 19.5l-6.75-6.75" />
</symbol>

<symbol id="arrow-small-left" viewBox="0 0 24 24" fill="none" stroke="currentColor">
  <path stroke-linecap="round" stroke-linejoin="round" d="M19.5 12h-15m0 0l6.75 6.75M4.5 12l6.75-6.75" />
</symbol>

<symbol id="arrow-small-right" viewBox="0 0 24 24" fill="none" stroke="currentColor">
  <path stroke-linecap="round" stroke-linejoin="round" d="M4.5 12h15m0 0l-6.75-6.75M19.5 12l-6.75 6.75" />
</symbol>

<symbol id="arrow-small-up" viewBox="0 0 24 24" fill="none" stroke="currentColor">
  <path stroke-linecap="round" stroke-linejoin="round" d="M12 19.5v-15m0 0l-6.75 6.75M12 4.5l6.75 6.75" />
</symbol>





<!-- Common -->

<symbol id="trash" viewBox="0 0 24 24" fill="none" stroke="currentColor">
  <path stroke-linecap="round" stroke-linejoin="round" d="M14.74 9l-.346 9m-4.788 0L9.26 9m9.968-3.21c.342.052.682.107 1.022.166m-1.022-.165L18.16 19.673a2.25 2.25 0 01-2.244 2.077H8.084a2.25 2.25 0 01-2.244-2.077L4.772 5.79m14.456 0a48.108 48.108 0 00-3.478-.397m-12 .562c.34-.059.68-.114 1.022-.165m0 0a48.11 48.11 0 013.478-.397m7.5 0v-.916c0-1.18-.91-2.164-2.09-2.201a51.964 51.964 0 00-3.32 0c-1.18.037-2.09 1.022-2.09 2.201v.916m7.5 0a48.667 48.667 0 00-7.5 0" />
</symbol>

<symbol id="tag" viewBox="0 0 24 24" fill="none" stroke="currentColor">
  <path stroke-linecap="round" stroke-linejoin="round" d="M9.568 3H5.25A2.25 2.25 0 003 5.25v4.318c0 .597.237 1.17.659 1.591l9.581 9.581c.699.699 1.78.872 2.607.33a18.095 18.095 0 005.223-5.223c.542-.827.369-1.908-.33-2.607L11.16 3.66A2.25 2.25 0 009.568 3z" />
  <path stroke-linecap="round" stroke-linejoin="round" d="M6 6h.008v.008H6V6z" />
</symbol>

<symbol id="star-empty" viewBox="0 0 24 24" fill="none" stroke="currentColor">
  <path stroke-linecap="round" stroke-linejoin="round" d="M11.48 3.499a.562.562 0 011.04 0l2.125 5.111a.563.563 0 00.475.345l5.518.442c.499.04.701.663.321.988l-4.204 3.602a.563.563 0 00-.182.557l1.285 5.385a.562.562 0 01-.84.61l-4.725-2.885a.563.563 0 00-.586 0L6.982 20.54a.562.562 0 01-.84-.61l1.285-5.386a.562.562 0 00-.182-.557l-4.204-3.602a.563.563 0 01.321-.988l5.518-.442a.563.563 0 00.475-.345L11.48 3.5z" />
</symbol>

<symbol id="list" viewBox="0 0 24 24" fill="none" stroke="currentColor">
  <path stroke-linecap="round" stroke-linejoin="round" d="M8.25 6.75h12M8.25 12h12m-12 5.25h12M3.75 6.75h.007v.008H3.75V6.75zm.375 0a.375.375 0 11-.75 0 .375.375 0 01.75 0zM3.75 12h.007v.008H3.75V12zm.375 0a.375.375 0 11-.75 0 .375.375 0 01.75 0zm-.375 5.25h.007v.008H3.75v-.008zm.375 0a.375.375 0 11-.75 0 .375.375 0 01.75 0z" />
</symbol>

<symbol id="link" viewBox="0 0 24 24" fill="none" stroke="currentColor">
  <path stroke-linecap="round" stroke-linejoin="round" d="M13.19 8.688a4.5 4.5 0 011.242 7.244l-4.5 4.5a4.5 4.5 0 01-6.364-6.364l1.757-1.757m13.35-.622l1.757-1.757a4.5 4.5 0 00-6.364-6.364l-4.5 4.5a4.5 4.5 0 001.242 7.244" />
</symbol>

<symbol id="heart-empty" viewBox="0 0 24 24" fill="none" stroke="currentColor">
  <path stroke-linecap="round" stroke-linejoin="round" d="M21 8.25c0-2.485-2.099-4.5-4.688-4.5-1.935 0-3.597 1.126-4.312 2.733-.715-1.607-2.377-2.733-4.313-2.733C5.1 3.75 3 5.765 3 8.25c0 7.22 9 12 9 12s9-4.78 9-12z" />
</symbol>

<symbol id="funnel" viewBox="0 0 24 24" fill="none" stroke="currentColor">
  <path stroke-linecap="round" stroke-linejoin="round" d="M12 3c2.755 0 5.455.232 8.083.678.533.09.917.556.917 1.096v1.044a2.25 2.25 0 01-.659 1.591l-5.432 5.432a2.25 2.25 0 00-.659 1.591v2.927a2.25 2.25 0 01-1.244 2.013L9.75 21v-6.568a2.25 2.25 0 00-.659-1.591L3.659 7.409A2.25 2.25 0 013 5.818V4.774c0-.54.384-1.006.917-1.096A48.32 48.32 0 0112 3z" />
</symbol>

<symbol id="folder" viewBox="0 0 24 24" fill="none" stroke="currentColor">
  <path stroke-linecap="round" stroke-linejoin="round" d="M2.25 12.75V12A2.25 2.25 0 014.5 9.75h15A2.25 2.25 0 0121.75 12v.75m-8.69-6.44l-2.12-2.12a1.5 1.5 0 00-1.061-.44H4.5A2.25 2.25 0 002.25 6v12a2.25 2.25 0 002.25 2.25h15A2.25 2.25 0 0021.75 18V9a2.25 2.25 0 00-2.25-2.25h-5.379a1.5 1.5 0 01-1.06-.44z" />
</symbol>

<symbol id="folder-open" viewBox="0 0 24 24" fill="none" stroke="currentColor">
  <path stroke-linecap="round" stroke-linejoin="round" d="M3.75 9.776c.112-.017.227-.026.344-.026h15.812c.117 0 .232.009.344.026m-16.5 0a2.25 2.25 0 00-1.883 2.542l.857 6a2.25 2.25 0 002.227 1.932H19.05a2.25 2.25 0 002.227-1.932l.857-6a2.25 2.25 0 00-1.883-2.542m-16.5 0V6A2.25 2.25 0 016 3.75h3.879a1.5 1.5 0 011.06.44l2.122 2.12a1.5 1.5 0 001.06.44H18A2.25 2.25 0 0120.25 9v.776" />
</symbol>

<symbol id="folder-add" viewBox="0 0 24 24" fill="none" stroke="currentColor">
  <path stroke-linecap="round" stroke-linejoin="round" d="M12 10.5v6m3-3H9m4.06-7.19l-2.12-2.12a1.5 1.5 0 00-1.061-.44H4.5A2.25 2.25 0 002.25 6v12a2.25 2.25 0 002.25 2.25h15A2.25 2.25 0 0021.75 18V9a2.25 2.25 0 00-2.25-2.25h-5.379a1.5 1.5 0 01-1.06-.44z" />
</symbol>

<symbol id="folder-minus" viewBox="0 0 24 24" fill="none" stroke="currentColor">
  <path stroke-linecap="round" stroke-linejoin="round" d="M15 13.5H9m4.06-7.19l-2.12-2.12a1.5 1.5 0 00-1.061-.44H4.5A2.25 2.25 0 002.25 6v12a2.25 2.25 0 002.25 2.25h15A2.25 2.25 0 0021.75 18V9a2.25 2.25 0 00-2.25-2.25h-5.379a1.5 1.5 0 01-1.06-.44z" />
</symbol>

<symbol id="cog-outline" viewBox="0 0 24 24" fill="none" stroke="currentColor">
  <path stroke-linecap="round" stroke-linejoin="round" d="M9.594 3.94c.09-.542.56-.94 1.11-.94h2.593c.55 0 1.02.398 1.11.94l.213 1.281c.063.374.313.686.645.87.074.04.147.083.22.127.324.196.72.257 1.075.124l1.217-.456a1.125 1.125 0 011.37.49l1.296 2.247a1.125 1.125 0 01-.26 1.431l-1.003.827c-.293.24-.438.613-.431.992a6.759 6.759 0 010 .255c-.007.378.138.75.43.99l1.005.828c.424.35.534.954.26 1.43l-1.298 2.247a1.125 1.125 0 01-1.369.491l-1.217-.456c-.355-.133-.75-.072-1.076.124a6.57 6.57 0 01-.22.128c-.331.183-.581.495-.644.869l-.213 1.28c-.09.543-.56.941-1.11.941h-2.594c-.55 0-1.02-.398-1.11-.94l-.213-1.281c-.062-.374-.312-.686-.644-.87a6.52 6.52 0 01-.22-.127c-.325-.196-.72-.257-1.076-.124l-1.217.456a1.125 1.125 0 01-1.369-.49l-1.297-2.247a1.125 1.125 0 01.26-1.431l1.004-.827c.292-.24.437-.613.43-.992a6.932 6.932 0 010-.255c.007-.378-.138-.75-.43-.99l-1.004-.828a1.125 1.125 0 01-.26-1.43l1.297-2.247a1.125 1.125 0 011.37-.491l1.216.456c.356.133.751.072 1.076-.124.072-.044.146-.087.22-.128.332-.183.582-.495.644-.869l.214-1.281z" />
  <path stroke-linecap="round" stroke-linejoin="round" d="M15 12a3 3 0 11-6 0 3 3 0 016 0z" />
</symbol>

<symbol id="cog-detailed" viewBox="0 0 24 24" fill="none" stroke="currentColor">
  <path stroke-linecap="round" stroke-linejoin="round" d="M4.5 12a7.5 7.5 0 0015 0m-15 0a7.5 7.5 0 1115 0m-15 0H3m16.5 0H21m-1.5 0H12m-8.457 3.077l1.41-.513m14.095-5.13l1.41-.513M5.106 17.785l1.15-.964m11.49-9.642l1.149-.964M7.501 19.795l.75-1.3m7.5-12.99l.75-1.3m-6.063 16.658l.26-1.477m2.605-14.772l.26-1.477m0 17.726l-.26-1.477M10.698 4.614l-.26-1.477M16.5 19.794l-.75-1.299M7.5 4.205L12 12m6.894 5.785l-1.149-.964M6.256 7.178l-1.15-.964m15.352 8.864l-1.41-.513M4.954 9.435l-1.41-.514M12.002 12l-3.75 6.495" />
</symbol>

<symbol id="adjustment-h" viewBox="0 0 24 24" fill="none" stroke="currentColor">
  <path stroke-linecap="round" stroke-linejoin="round" d="M10.5 6h9.75M10.5 6a1.5 1.5 0 11-3 0m3 0a1.5 1.5 0 10-3 0M3.75 6H7.5m3 12h9.75m-9.75 0a1.5 1.5 0 01-3 0m3 0a1.5 1.5 0 00-3 0m-3.75 0H7.5m9-6h3.75m-3.75 0a1.5 1.5 0 01-3 0m3 0a1.5 1.5 0 00-3 0m-9.75 0h9.75" />
</symbol>

<symbol id="adjustment-v" viewBox="0 0 24 24" fill="none" stroke="currentColor">
  <path stroke-linecap="round" stroke-linejoin="round" d="M6 13.5V3.75m0 9.75a1.5 1.5 0 010 3m0-3a1.5 1.5 0 000 3m0 3.75V16.5m12-3V3.75m0 9.75a1.5 1.5 0 010 3m0-3a1.5 1.5 0 000 3m0 3.75V16.5m-6-9V3.75m0 3.75a1.5 1.5 0 010 3m0-3a1.5 1.5 0 000 3m0 9.75V10.5" />
</symbol>

<symbol id="download-tray" viewBox="0 0 24 24" fill="none" stroke="currentColor">
  <path stroke-linecap="round" stroke-linejoin="round" d="M3 16.5v2.25A2.25 2.25 0 005.25 21h13.5A2.25 2.25 0 0021 18.75V16.5M16.5 12L12 16.5m0 0L7.5 12m4.5 4.5V3" />
</symbol>

<symbol id="reload-round" viewBox="0 0 24 24" fill="none" stroke="currentColor">
  <path stroke-linecap="round" stroke-linejoin="round" d="M16.023 9.348h4.992v-.001M2.985 19.644v-4.992m0 0h4.992m-4.993 0l3.181 3.183a8.25 8.25 0 0013.803-3.7M4.031 9.865a8.25 8.25 0 0113.803-3.7l3.181 3.182m0-4.991v4.99" />
</symbol>

<symbol id="reload-squircle" viewBox="0 0 24 24" fill="none" stroke="currentColor">
  <path stroke-linecap="round" stroke-linejoin="round" d="M19.5 12c0-1.232-.046-2.453-.138-3.662a4.006 4.006 0 00-3.7-3.7 48.678 48.678 0 00-7.324 0 4.006 4.006 0 00-3.7 3.7c-.017.22-.032.441-.046.662M19.5 12l3-3m-3 3l-3-3m-12 3c0 1.232.046 2.453.138 3.662a4.006 4.006 0 003.7 3.7 48.656 48.656 0 007.324 0 4.006 4.006 0 003.7-3.7c.017-.22.032-.441.046-.662M4.5 12l3 3m-3-3l-3 3" />
</symbol>

<symbol id="exit" viewBox="0 0 24 24" fill="none" stroke="currentColor">
  <path stroke-linecap="round" stroke-linejoin="round" d="M15.75 9V5.25A2.25 2.25 0 0013.5 3h-6a2.25 2.25 0 00-2.25 2.25v13.5A2.25 2.25 0 007.5 21h6a2.25 2.25 0 002.25-2.25V15M12 9l-3 3m0 0l3 3m-3-3h12.75" />
</symbol>

<symbol id="upload" viewBox="0 0 24 24" fill="none" stroke="currentColor">
  <path stroke-linecap="round" stroke-linejoin="round" d="M3 16.5v2.25A2.25 2.25 0 005.25 21h13.5A2.25 2.25 0 0021 18.75V16.5m-13.5-9L12 3m0 0l4.5 4.5M12 3v13.5" />
</symbol>

<symbol id="undo" viewBox="0 0 24 24" fill="none" stroke="currentColor">
  <path stroke-linecap="round" stroke-linejoin="round" d="M9 15L3 9m0 0l6-6M3 9h12a6 6 0 010 12h-3" />
</symbol>

<symbol id="redo" viewBox="0 0 24 24" fill="none" stroke="currentColor">
  <path stroke-linecap="round" stroke-linejoin="round" d="M15 15l6-6m0 0l-6-6m6 6H9a6 6 0 000 12h3" />
</symbol>

<symbol id="shrink" viewBox="0 0 24 24" fill="none" stroke="currentColor">
  <path stroke-linecap="round" stroke-linejoin="round" d="M9 9V4.5M9 9H4.5M9 9L3.75 3.75M9 15v4.5M9 15H4.5M9 15l-5.25 5.25M15 9h4.5M15 9V4.5M15 9l5.25-5.25M15 15h4.5M15 15v4.5m0-4.5l5.25 5.25" />
</symbol>

<symbol id="expand" viewBox="0 0 24 24" fill="none" stroke="currentColor">
  <path stroke-linecap="round" stroke-linejoin="round" d="M3.75 3.75v4.5m0-4.5h4.5m-4.5 0L9 9M3.75 20.25v-4.5m0 4.5h4.5m-4.5 0L9 15M20.25 3.75h-4.5m4.5 0v4.5m0-4.5L15 9m5.25 11.25h-4.5m4.5 0v-4.5m0 4.5L15 15" />
</symbol>





<!-- Tools -->

<symbol id="spanner" viewBox="0 0 24 24" fill="none" stroke="currentColor">
  <path stroke-linecap="round" stroke-linejoin="round" d="M4.867 19.125h.008v.008h-.008v-.008z" />
</symbol>

<symbol id="spanner-screwdriver" viewBox="0 0 24 24" fill="none" stroke="currentColor">
  <path stroke-linecap="round" stroke-linejoin="round" d="M11.42 15.17L17.25 21A2.652 2.652 0 0021 17.25l-5.877-5.877M11.42 15.17l2.496-3.03c.317-.384.74-.626 1.208-.766M11.42 15.17l-4.655 5.653a2.548 2.548 0 11-3.586-3.586l6.837-5.63m5.108-.233c.55-.164 1.163-.188 1.743-.14a4.5 4.5 0 004.486-6.336l-3.276 3.277a3.004 3.004 0 01-2.25-2.25l3.276-3.276a4.5 4.5 0 00-6.336 4.486c.091 1.076-.071 2.264-.904 2.95l-.102.085m-1.745 1.437L5.909 7.5H4.5L2.25 3.75l1.5-1.5L7.5 4.5v1.409l4.26 4.26m-1.745 1.437l1.745-1.437m6.615 8.206L15.75 15.75M4.867 19.125h.008v.008h-.008v-.008z" />
</symbol>

<symbol id="scissors" viewBox="0 0 24 24" fill="none" stroke="currentColor">
  <path stroke-linecap="round" stroke-linejoin="round" d="M7.848 8.25l1.536.887M7.848 8.25a3 3 0 11-5.196-3 3 3 0 015.196 3zm1.536.887a2.165 2.165 0 011.083 1.839c.005.351.054.695.14 1.024M9.384 9.137l2.077 1.199M7.848 15.75l1.536-.887m-1.536.887a3 3 0 11-5.196 3 3 3 0 015.196-3zm1.536-.887a2.165 2.165 0 001.083-1.838c.005-.352.054-.695.14-1.025m-1.223 2.863l2.077-1.199m0-3.328a4.323 4.323 0 012.068-1.379l5.325-1.628a4.5 4.5 0 012.48-.044l.803.215-7.794 4.5m-2.882-1.664A4.331 4.331 0 0010.607 12m3.736 0l7.794 4.5-.802.215a4.5 4.5 0 01-2.48-.043l-5.326-1.629a4.324 4.324 0 01-2.068-1.379M14.343 12l-2.882 1.664" />
</symbol>




<!-- Utility -->

<symbol id="zoom-in" viewBox="0 0 24 24" fill="none" stroke="currentColor">
  <path stroke-linecap="round" stroke-linejoin="round" d="M21 21l-5.197-5.197m0 0A7.5 7.5 0 105.196 5.196a7.5 7.5 0 0010.607 10.607zM10.5 7.5v6m3-3h-6" />
</symbol>

<symbol id="zoom-out" viewBox="0 0 24 24" fill="none" stroke="currentColor">
  <path stroke-linecap="round" stroke-linejoin="round" d="M21 21l-5.197-5.197m0 0A7.5 7.5 0 105.196 5.196a7.5 7.5 0 0010.607 10.607zM13.5 10.5h-6" />
</symbol>

<symbol id="magnifying-glass" viewBox="0 0 24 24" fill="none" stroke="currentColor">
  <path stroke-linecap="round" stroke-linejoin="round" d="M21 21l-5.197-5.197m0 0A7.5 7.5 0 105.196 5.196a7.5 7.5 0 0010.607 10.607z" />
</symbol>




<!-- Navigation -->

<symbol id="map" viewBox="0 0 24 24" fill="none" stroke="currentColor">
  <path stroke-linecap="round" stroke-linejoin="round" d="M9 6.75V15m6-6v8.25m.503 3.498l4.875-2.437c.381-.19.622-.58.622-1.006V4.82c0-.836-.88-1.38-1.628-1.006l-3.869 1.934c-.317.159-.69.159-1.006 0L9.503 3.252a1.125 1.125 0 00-1.006 0L3.622 5.689C3.24 5.88 3 6.27 3 6.695V19.18c0 .836.88 1.38 1.628 1.006l3.869-1.934c.317-.159.69-.159 1.006 0l4.994 2.497c.317.158.69.158 1.006 0z" />
</symbol>

<symbol id="map-pin" viewBox="0 0 24 24" fill="none" stroke="currentColor">
  <path stroke-linecap="round" stroke-linejoin="round" d="M15 10.5a3 3 0 11-6 0 3 3 0 016 0z" />
  <path stroke-linecap="round" stroke-linejoin="round" d="M19.5 10.5c0 7.142-7.5 11.25-7.5 11.25S4.5 17.642 4.5 10.5a7.5 7.5 0 1115 0z" />
</symbol>




<!-- Camera and Video -->

<symbol id="photos" viewBox="0 0 24 24" fill="none" stroke="currentColor">
  <path stroke-linecap="round" stroke-linejoin="round" d="M2.25 15.75l5.159-5.159a2.25 2.25 0 013.182 0l5.159 5.159m-1.5-1.5l1.409-1.409a2.25 2.25 0 013.182 0l2.909 2.909m-18 3.75h16.5a1.5 1.5 0 001.5-1.5V6a1.5 1.5 0 00-1.5-1.5H3.75A1.5 1.5 0 002.25 6v12a1.5 1.5 0 001.5 1.5zm10.5-11.25h.008v.008h-.008V8.25zm.375 0a.375.375 0 11-.75 0 .375.375 0 01.75 0z" />
</symbol>

<symbol id="video-on" viewBox="0 0 24 24" fill="none" stroke="currentColor">
  <path stroke-linecap="round" d="M15.75 10.5l4.72-4.72a.75.75 0 011.28.53v11.38a.75.75 0 01-1.28.53l-4.72-4.72M4.5 18.75h9a2.25 2.25 0 002.25-2.25v-9a2.25 2.25 0 00-2.25-2.25h-9A2.25 2.25 0 002.25 7.5v9a2.25 2.25 0 002.25 2.25z" />
</symbol>

<symbol id="video-off" viewBox="0 0 24 24" fill="none" stroke="currentColor">
  <path stroke-linecap="round" stroke-linejoin="round" d="M15.75 10.5l4.72-4.72a.75.75 0 011.28.53v11.38a.75.75 0 01-1.28.53l-4.72-4.72M12 18.75H4.5a2.25 2.25 0 01-2.25-2.25V9m12.841 9.091L16.5 19.5m-1.409-1.409c.407-.407.659-.97.659-1.591v-9a2.25 2.25 0 00-2.25-2.25h-9c-.621 0-1.184.252-1.591.659m12.182 12.182L2.909 5.909M1.5 4.5l1.409 1.409" />
</symbol>

<symbol id="speaker" viewBox="0 0 24 24" fill="none" stroke="currentColor">
  <path stroke-linecap="round" stroke-linejoin="round" d="M19.114 5.636a9 9 0 010 12.728M16.463 8.288a5.25 5.25 0 010 7.424M6.75 8.25l4.72-4.72a.75.75 0 011.28.53v15.88a.75.75 0 01-1.28.53l-4.72-4.72H4.51c-.88 0-1.704-.507-1.938-1.354A9.01 9.01 0 012.25 12c0-.83.112-1.633.322-2.396C2.806 8.756 3.63 8.25 4.51 8.25H6.75z" />
</symbol>

<symbol id="speaker-off" viewBox="0 0 24 24" fill="none" stroke="currentColor">
  <path stroke-linecap="round" stroke-linejoin="round" d="M17.25 9.75L19.5 12m0 0l2.25 2.25M19.5 12l2.25-2.25M19.5 12l-2.25 2.25m-10.5-6l4.72-4.72a.75.75 0 011.28.531V19.94a.75.75 0 01-1.28.53l-4.72-4.72H4.51c-.88 0-1.704-.506-1.938-1.354A9.01 9.01 0 012.25 12c0-.83.112-1.633.322-2.395C2.806 8.757 3.63 8.25 4.51 8.25H6.75z" />
</symbol>

<symbol id="stop" viewBox="0 0 24 24" fill="none" stroke="currentColor">
  <path stroke-linecap="round" stroke-linejoin="round" d="M5.25 7.5A2.25 2.25 0 017.5 5.25h9a2.25 2.25 0 012.25 2.25v9a2.25 2.25 0 01-2.25 2.25h-9a2.25 2.25 0 01-2.25-2.25v-9z" />
</symbol>

<symbol id="stop-circle" viewBox="0 0 24 24" fill="none" stroke="currentColor">
  <path stroke-linecap="round" stroke-linejoin="round" d="M21 12a9 9 0 11-18 0 9 9 0 0118 0z" />
  <path stroke-linecap="round" stroke-linejoin="round" d="M9 9.563C9 9.252 9.252 9 9.563 9h4.874c.311 0 .563.252.563.563v4.874c0 .311-.252.563-.563.563H9.564A.562.562 0 019 14.437V9.564z" />
</symbol>

<symbol id="play" viewBox="0 0 24 24" fill="none" stroke="currentColor">
  <path stroke-linecap="round" stroke-linejoin="round" d="M5.25 5.653c0-.856.917-1.398 1.667-.986l11.54 6.348a1.125 1.125 0 010 1.971l-11.54 6.347a1.125 1.125 0 01-1.667-.985V5.653z" />
</symbol>

<symbol id="play-pause" viewBox="0 0 24 24" fill="none" stroke="currentColor">
  <path stroke-linecap="round" stroke-linejoin="round" d="M21 7.5V18M15 7.5V18M3 16.811V8.69c0-.864.933-1.406 1.683-.977l7.108 4.061a1.125 1.125 0 010 1.954l-7.108 4.061A1.125 1.125 0 013 16.811z" />
</symbol>

<symbol id="play-circle" viewBox="0 0 24 24" fill="none" stroke="currentColor">
  <path stroke-linecap="round" stroke-linejoin="round" d="M21 12a9 9 0 11-18 0 9 9 0 0118 0z" />
  <path stroke-linecap="round" stroke-linejoin="round" d="M15.91 11.672a.375.375 0 010 .656l-5.603 3.113a.375.375 0 01-.557-.328V8.887c0-.286.307-.466.557-.327l5.603 3.112z" />
</symbol>

<symbol id="pause" viewBox="0 0 24 24" fill="none" stroke="currentColor">
  <path stroke-linecap="round" stroke-linejoin="round" d="M15.75 5.25v13.5m-7.5-13.5v13.5" />
</symbol>

<symbol id="pause-circle" viewBox="0 0 24 24" fill="none" stroke="currentColor">
  <path stroke-linecap="round" stroke-linejoin="round" d="M14.25 9v6m-4.5 0V9M21 12a9 9 0 11-18 0 9 9 0 0118 0z" />
</symbol>

<symbol id="microphone" viewBox="0 0 24 24" fill="none" stroke="currentColor">
  <path stroke-linecap="round" stroke-linejoin="round" d="M12 18.75a6 6 0 006-6v-1.5m-6 7.5a6 6 0 01-6-6v-1.5m6 7.5v3.75m-3.75 0h7.5M12 15.75a3 3 0 01-3-3V4.5a3 3 0 116 0v8.25a3 3 0 01-3 3z" />
</symbol>

<symbol id="forward" viewBox="0 0 24 24" fill="none" stroke="currentColor">
  <path stroke-linecap="round" stroke-linejoin="round" d="M3 8.688c0-.864.933-1.405 1.683-.977l7.108 4.062a1.125 1.125 0 010 1.953l-7.108 4.062A1.125 1.125 0 013 16.81V8.688zM12.75 8.688c0-.864.933-1.405 1.683-.977l7.108 4.062a1.125 1.125 0 010 1.953l-7.108 4.062a1.125 1.125 0 01-1.683-.977V8.688z" />
</symbol>

<symbol id="backward" viewBox="0 0 24 24" fill="none" stroke="currentColor">
  <path stroke-linecap="round" stroke-linejoin="round" d="M21 16.811c0 .864-.933 1.405-1.683.977l-7.108-4.062a1.125 1.125 0 010-1.953l7.108-4.062A1.125 1.125 0 0121 8.688v8.123zM11.25 16.811c0 .864-.933 1.405-1.683.977l-7.108-4.062a1.125 1.125 0 010-1.953L9.567 7.71a1.125 1.125 0 011.683.977v8.123z" />
</symbol>




<!-- Users / Profiles -->

<symbol id="user" viewBox="0 0 24 24" fill="none" stroke="currentColor">
  <path stroke-linecap="round" stroke-linejoin="round" d="M15.75 6a3.75 3.75 0 11-7.5 0 3.75 3.75 0 017.5 0zM4.501 20.118a7.5 7.5 0 0114.998 0A17.933 17.933 0 0112 21.75c-2.676 0-5.216-.584-7.499-1.632z" />
</symbol>

<symbol id="user-circle" viewBox="0 0 24 24" fill="none" stroke="currentColor">
  <path stroke-linecap="round" stroke-linejoin="round" d="M17.982 18.725A7.488 7.488 0 0012 15.75a7.488 7.488 0 00-5.982 2.975m11.963 0a9 9 0 10-11.963 0m11.963 0A8.966 8.966 0 0112 21a8.966 8.966 0 01-5.982-2.275M15 9.75a3 3 0 11-6 0 3 3 0 016 0z" />
</symbol>

<symbol id="user-group" viewBox="0 0 24 24" fill="none" stroke="currentColor">
  <path stroke-linecap="round" stroke-linejoin="round" d="M18 18.72a9.094 9.094 0 003.741-.479 3 3 0 00-4.682-2.72m.94 3.198l.001.031c0 .225-.012.447-.037.666A11.944 11.944 0 0112 21c-2.17 0-4.207-.576-5.963-1.584A6.062 6.062 0 016 18.719m12 0a5.971 5.971 0 00-.941-3.197m0 0A5.995 5.995 0 0012 12.75a5.995 5.995 0 00-5.058 2.772m0 0a3 3 0 00-4.681 2.72 8.986 8.986 0 003.74.477m.94-3.197a5.971 5.971 0 00-.94 3.197M15 6.75a3 3 0 11-6 0 3 3 0 016 0zm6 3a2.25 2.25 0 11-4.5 0 2.25 2.25 0 014.5 0zm-13.5 0a2.25 2.25 0 11-4.5 0 2.25 2.25 0 014.5 0z" />
</symbol>

<symbol id="user-add" viewBox="0 0 24 24" fill="none" stroke="currentColor">
  <path stroke-linecap="round" stroke-linejoin="round" d="M19 7.5v3m0 0v3m0-3h3m-3 0h-3m-2.25-4.125a3.375 3.375 0 11-6.75 0 3.375 3.375 0 016.75 0zM4 19.235v-.11a6.375 6.375 0 0112.75 0v.109A12.318 12.318 0 0110.374 21c-2.331 0-4.512-.645-6.374-1.766z" />
</symbol>

<symbol id="user-remove" viewBox="0 0 24 24" fill="none" stroke="currentColor">
  <path stroke-linecap="round" stroke-linejoin="round" d="M22 10.5h-6m-2.25-4.125a3.375 3.375 0 11-6.75 0 3.375 3.375 0 016.75 0zM4 19.235v-.11a6.375 6.375 0 0112.75 0v.109A12.318 12.318 0 0110.374 21c-2.331 0-4.512-.645-6.374-1.766z" />
</symbol>

<symbol id="contact-card" viewBox="0 0 24 24" fill="none" stroke="currentColor">
  <path stroke-linecap="round" stroke-linejoin="round" d="M15 9h3.75M15 12h3.75M15 15h3.75M4.5 19.5h15a2.25 2.25 0 002.25-2.25V6.75A2.25 2.25 0 0019.5 4.5h-15a2.25 2.25 0 00-2.25 2.25v10.5A2.25 2.25 0 004.5 19.5zm6-10.125a1.875 1.875 0 11-3.75 0 1.875 1.875 0 013.75 0zm1.294 6.336a6.721 6.721 0 01-3.17.789 6.721 6.721 0 01-3.168-.789 3.376 3.376 0 016.338 0z" />
</symbol>

<symbol id="inbox-tray" viewBox="0 0 24 24" fill="none" stroke="currentColor">
  <path stroke-linecap="round" stroke-linejoin="round" d="M2.25 13.5h3.86a2.25 2.25 0 012.012 1.244l.256.512a2.25 2.25 0 002.013 1.244h3.218a2.25 2.25 0 002.013-1.244l.256-.512a2.25 2.25 0 012.013-1.244h3.859m-19.5.338V18a2.25 2.25 0 002.25 2.25h15A2.25 2.25 0 0021.75 18v-4.162c0-.224-.034-.447-.1-.661L19.24 5.338a2.25 2.25 0 00-2.15-1.588H6.911a2.25 2.25 0 00-2.15 1.588L2.35 13.177a2.25 2.25 0 00-.1.661z" />
</symbol>

<symbol id="inbox-tray-arrow" viewBox="0 0 24 24" fill="none" stroke="currentColor">
  <path stroke-linecap="round" stroke-linejoin="round" d="M9 3.75H6.912a2.25 2.25 0 00-2.15 1.588L2.35 13.177a2.25 2.25 0 00-.1.661V18a2.25 2.25 0 002.25 2.25h15A2.25 2.25 0 0021.75 18v-4.162c0-.224-.034-.447-.1-.661L19.24 5.338a2.25 2.25 0 00-2.15-1.588H15M2.25 13.5h3.86a2.25 2.25 0 012.012 1.244l.256.512a2.25 2.25 0 002.013 1.244h3.218a2.25 2.25 0 002.013-1.244l.256-.512a2.25 2.25 0 012.013-1.244h3.859M12 3v8.25m0 0l-3-3m3 3l3-3" />
</symbol>




<!-- ECommerce -->

<symbol id="cart" viewBox="0 0 24 24" fill="none" stroke="currentColor">
  <path stroke-linecap="round" stroke-linejoin="round" d="M2.25 3h1.386c.51 0 .955.343 1.087.835l.383 1.437M7.5 14.25a3 3 0 00-3 3h15.75m-12.75-3h11.218c1.121-2.3 2.1-4.684 2.924-7.138a60.114 60.114 0 00-16.536-1.84M7.5 14.25L5.106 5.272M6 20.25a.75.75 0 11-1.5 0 .75.75 0 011.5 0zm12.75 0a.75.75 0 11-1.5 0 .75.75 0 011.5 0z" />
</symbol>

<symbol id="bag" viewBox="0 0 24 24" fill="none" stroke="currentColor">
  <path stroke-linecap="round" stroke-linejoin="round" d="M15.75 10.5V6a3.75 3.75 0 10-7.5 0v4.5m11.356-1.993l1.263 12c.07.665-.45 1.243-1.119 1.243H4.25a1.125 1.125 0 01-1.12-1.243l1.264-12A1.125 1.125 0 015.513 7.5h12.974c.576 0 1.059.435 1.119 1.007zM8.625 10.5a.375.375 0 11-.75 0 .375.375 0 01.75 0zm7.5 0a.375.375 0 11-.75 0 .375.375 0 01.75 0z" />
</symbol>

<symbol id="bank-card" viewBox="0 0 24 24" fill="none" stroke="currentColor">
  <path stroke-linecap="round" stroke-linejoin="round" d="M2.25 8.25h19.5M2.25 9h19.5m-16.5 5.25h6m-6 2.25h3m-3.75 3h15a2.25 2.25 0 002.25-2.25V6.75A2.25 2.25 0 0019.5 4.5h-15a2.25 2.25 0 00-2.25 2.25v10.5A2.25 2.25 0 004.5 19.5z" />
</symbol>




<!-- Security -->

<symbol id="shield-tick" viewBox="0 0 24 24" fill="none" stroke="currentColor">
  <path stroke-linecap="round" stroke-linejoin="round" d="M9 12.75L11.25 15 15 9.75m-3-7.036A11.959 11.959 0 013.598 6 11.99 11.99 0 003 9.749c0 5.592 3.824 10.29 9 11.623 5.176-1.332 9-6.03 9-11.622 0-1.31-.21-2.571-.598-3.751h-.152c-3.196 0-6.1-1.248-8.25-3.285z" />
</symbol>

<symbol id="shield-exclaim" viewBox="0 0 24 24" fill="none" stroke="currentColor">
  <path stroke-linecap="round" stroke-linejoin="round" d="M12 9v3.75m0-10.036A11.959 11.959 0 013.598 6 11.99 11.99 0 003 9.75c0 5.592 3.824 10.29 9 11.622 5.176-1.332 9-6.03 9-11.622 0-1.31-.21-2.57-.598-3.75h-.152c-3.196 0-6.1-1.249-8.25-3.286zm0 13.036h.008v.008H12v-.008z" />
</symbol>

<symbol id="locked" viewBox="0 0 24 24" fill="none" stroke="currentColor">
  <path stroke-linecap="round" stroke-linejoin="round" d="M16.5 10.5V6.75a4.5 4.5 0 10-9 0v3.75m-.75 11.25h10.5a2.25 2.25 0 002.25-2.25v-6.75a2.25 2.25 0 00-2.25-2.25H6.75a2.25 2.25 0 00-2.25 2.25v6.75a2.25 2.25 0 002.25 2.25z" />
</symbol>

<symbol id="unlocked" viewBox="0 0 24 24" fill="none" stroke="currentColor">
  <path stroke-linecap="round" stroke-linejoin="round" d="M13.5 10.5V6.75a4.5 4.5 0 119 0v3.75M3.75 21.75h10.5a2.25 2.25 0 002.25-2.25v-6.75a2.25 2.25 0 00-2.25-2.25H3.75a2.25 2.25 0 00-2.25 2.25v6.75a2.25 2.25 0 002.25 2.25z" />
</symbol>

<symbol id="key" viewBox="0 0 24 24" fill="none" stroke="currentColor">
  <path stroke-linecap="round" stroke-linejoin="round" d="M15.75 5.25a3 3 0 013 3m3 0a6 6 0 01-7.029 5.912c-.563-.097-1.159.026-1.563.43L10.5 17.25H8.25v2.25H6v2.25H2.25v-2.818c0-.597.237-1.17.659-1.591l6.499-6.499c.404-.404.527-1 .43-1.563A6 6 0 1121.75 8.25z" />
</symbol>


<!-- Office -->

<symbol id="printer" viewBox="0 0 24 24" fill="none" stroke="currentColor">
  <path stroke-linecap="round" stroke-linejoin="round" d="M6.72 13.829c-.24.03-.48.062-.72.096m.72-.096a42.415 42.415 0 0110.56 0m-10.56 0L6.34 18m10.94-4.171c.24.03.48.062.72.096m-.72-.096L17.66 18m0 0l.229 2.523a1.125 1.125 0 01-1.12 1.227H7.231c-.662 0-1.18-.568-1.12-1.227L6.34 18m11.318 0h1.091A2.25 2.25 0 0021 15.75V9.456c0-1.081-.768-2.015-1.837-2.175a48.055 48.055 0 00-1.913-.247M6.34 18H5.25A2.25 2.25 0 013 15.75V9.456c0-1.081.768-2.015 1.837-2.175a48.041 48.041 0 011.913-.247m10.5 0a48.536 48.536 0 00-10.5 0m10.5 0V3.375c0-.621-.504-1.125-1.125-1.125h-8.25c-.621 0-1.125.504-1.125 1.125v3.659M18 10.5h.008v.008H18V10.5zm-3 0h.008v.008H15V10.5z" />
</symbol>

<symbol id="pencil" viewBox="0 0 24 24" fill="none" stroke="currentColor">
  <path stroke-linecap="round" stroke-linejoin="round" d="M16.862 4.487l1.687-1.688a1.875 1.875 0 112.652 2.652L6.832 19.82a4.5 4.5 0 01-1.897 1.13l-2.685.8.8-2.685a4.5 4.5 0 011.13-1.897L16.863 4.487zm0 0L19.5 7.125" />
</symbol>

<symbol id="pencil-square" viewBox="0 0 24 24" fill="none" stroke="currentColor">
  <path stroke-linecap="round" stroke-linejoin="round" d="M16.862 4.487l1.687-1.688a1.875 1.875 0 112.652 2.652L10.582 16.07a4.5 4.5 0 01-1.897 1.13L6 18l.8-2.685a4.5 4.5 0 011.13-1.897l8.932-8.931zm0 0L19.5 7.125M18 14v4.75A2.25 2.25 0 0115.75 21H5.25A2.25 2.25 0 013 18.75V8.25A2.25 2.25 0 015.25 6H10" />
</symbol>

<symbol id="paperclip" viewBox="0 0 24 24" fill="none" stroke="currentColor">
  <path stroke-linecap="round" stroke-linejoin="round" d="M18.375 12.739l-7.693 7.693a4.5 4.5 0 01-6.364-6.364l10.94-10.94A3 3 0 1119.5 7.372L8.552 18.32m.009-.01l-.01.01m5.699-9.941l-7.81 7.81a1.5 1.5 0 002.112 2.13" />
</symbol>

<symbol id="paintbrush" viewBox="0 0 24 24" fill="none" stroke="currentColor">
  <path stroke-linecap="round" stroke-linejoin="round" d="M9.53 16.122a3 3 0 00-5.78 1.128 2.25 2.25 0 01-2.4 2.245 4.5 4.5 0 008.4-2.245c0-.399-.078-.78-.22-1.128zm0 0a15.998 15.998 0 003.388-1.62m-5.043-.025a15.994 15.994 0 011.622-3.395m3.42 3.42a15.995 15.995 0 004.764-4.648l3.876-5.814a1.151 1.151 0 00-1.597-1.597L14.146 6.32a15.996 15.996 0 00-4.649 4.763m3.42 3.42a6.776 6.776 0 00-3.42-3.42" />
</symbol>


<!-- Symbols -->

<symbol id="question-mark-circle" viewBox="0 0 24 24" fill="none" stroke="currentColor">
  <path stroke-linecap="round" stroke-linejoin="round" d="M9.879 7.519c1.171-1.025 3.071-1.025 4.242 0 1.172 1.025 1.172 2.687 0 3.712-.203.179-.43.326-.67.442-.745.361-1.45.999-1.45 1.827v.75M21 12a9 9 0 11-18 0 9 9 0 0118 0zm-9 5.25h.008v.008H12v-.008z" />
</symbol>

<symbol id="plus" viewBox="0 0 24 24" fill="none" stroke="currentColor">
  <path stroke-linecap="round" stroke-linejoin="round" d="M12 4.5v15m7.5-7.5h-15" />
</symbol>

<symbol id="plus-small" viewBox="0 0 24 24" fill="none" stroke="currentColor">
  <path stroke-linecap="round" stroke-linejoin="round" d="M12 6v12m6-6H6" />
</symbol>

<symbol id="plus-circle" viewBox="0 0 24 24" fill="none" stroke="currentColor">
  <path stroke-linecap="round" stroke-linejoin="round" d="M12 9v6m3-3H9m12 0a9 9 0 11-18 0 9 9 0 0118 0z" />
</symbol>

<symbol id="minus" viewBox="0 0 24 24" fill="none" stroke="currentColor">
  <path stroke-linecap="round" stroke-linejoin="round" d="M19.5 12h-15" />
</symbol>

<symbol id="minus-small" viewBox="0 0 24 24" fill="none" stroke="currentColor">
  <path stroke-linecap="round" stroke-linejoin="round" d="M18 12H6" />
</symbol>

<symbol id="minus-circle" viewBox="0 0 24 24" fill="none" stroke="currentColor">
  <path stroke-linecap="round" stroke-linejoin="round" d="M15 12H9m12 0a9 9 0 11-18 0 9 9 0 0118 0z" />
</symbol>

<symbol id="no-access" viewBox="0 0 24 24" fill="none" stroke="currentColor">
  <path stroke-linecap="round" stroke-linejoin="round" d="M18.364 18.364A9 9 0 005.636 5.636m12.728 12.728A9 9 0 015.636 5.636m12.728 12.728L5.636 5.636" />
</symbol>

<symbol id="information-circle" viewBox="0 0 24 24" fill="none" stroke="currentColor">
  <path stroke-linecap="round" stroke-linejoin="round" d="M11.25 11.25l.041-.02a.75.75 0 011.063.852l-.708 2.836a.75.75 0 001.063.853l.041-.021M21 12a9 9 0 11-18 0 9 9 0 0118 0zm-9-3.75h.008v.008H12V8.25z" />
</symbol>

<symbol id="tick" viewBox="0 0 24 24" fill="none" stroke="currentColor">
  <path stroke-linecap="round" stroke-linejoin="round" d="M4.5 12.75l6 6 9-13.5" />
</symbol>

<symbol id="tick-circle" viewBox="0 0 24 24" fill="none" stroke="currentColor">
  <path stroke-linecap="round" stroke-linejoin="round" d="M9 12.75L11.25 15 15 9.75M21 12a9 9 0 11-18 0 9 9 0 0118 0z" />
</symbol>

<symbol id="tick-badge" viewBox="0 0 24 24" fill="none" stroke="currentColor">
  <path stroke-linecap="round" stroke-linejoin="round" d="M9 12.75L11.25 15 15 9.75M21 12c0 1.268-.63 2.39-1.593 3.068a3.745 3.745 0 01-1.043 3.296 3.745 3.745 0 01-3.296 1.043A3.745 3.745 0 0112 21c-1.268 0-2.39-.63-3.068-1.593a3.746 3.746 0 01-3.296-1.043 3.745 3.745 0 01-1.043-3.296A3.745 3.745 0 013 12c0-1.268.63-2.39 1.593-3.068a3.745 3.745 0 011.043-3.296 3.746 3.746 0 013.296-1.043A3.746 3.746 0 0112 3c1.268 0 2.39.63 3.068 1.593a3.746 3.746 0 013.296 1.043 3.746 3.746 0 011.043 3.296A3.745 3.745 0 0121 12z" />
</symbol>

<symbol id="bell-alert" viewBox="0 0 24 24" fill="none" stroke="currentColor">
  <path stroke-linecap="round" stroke-linejoin="round" d="M14.857 17.082a23.848 23.848 0 005.454-1.31A8.967 8.967 0 0118 9.75v-.7V9A6 6 0 006 9v.75a8.967 8.967 0 01-2.312 6.022c1.733.64 3.56 1.085 5.455 1.31m5.714 0a24.255 24.255 0 01-5.714 0m5.714 0a3 3 0 11-5.714 0M3.124 7.5A8.969 8.969 0 015.292 3m13.416 0a8.969 8.969 0 012.168 4.5" />
</symbol>

<symbol id="bell" viewBox="0 0 24 24" fill="none" stroke="currentColor">
  <path stroke-linecap="round" stroke-linejoin="round" d="M14.857 17.082a23.848 23.848 0 005.454-1.31A8.967 8.967 0 0118 9.75v-.7V9A6 6 0 006 9v.75a8.967 8.967 0 01-2.312 6.022c1.733.64 3.56 1.085 5.455 1.31m5.714 0a24.255 24.255 0 01-5.714 0m5.714 0a3 3 0 11-5.714 0" />
</symbol>

<symbol id="bars-3" viewBox="0 0 24 24" fill="none" stroke="currentColor">
  <path stroke-linecap="round" stroke-linejoin="round" d="M3.75 6.75h16.5M3.75 12h16.5m-16.5 5.25h16.5" />
</symbol>

<symbol id="bars-2" viewBox="0 0 24 24" fill="none" stroke="currentColor">
  <path stroke-linecap="round" stroke-linejoin="round" d="M3.75 9h16.5m-16.5 6.75h16.5" />
</symbol>

<symbol id="home" viewBox="0 0 24 24" fill="none" stroke="currentColor">
  <path stroke-linecap="round" stroke-linejoin="round" d="M2.25 12l8.954-8.955c.44-.439 1.152-.439 1.591 0L21.75 12M4.5 9.75v10.125c0 .621.504 1.125 1.125 1.125H9.75v-4.875c0-.621.504-1.125 1.125-1.125h2.25c.621 0 1.125.504 1.125 1.125V21h4.125c.621 0 1.125-.504 1.125-1.125V9.75M8.25 21h8.25" />
</symbol>

<symbol id="flag" viewBox="0 0 24 24" fill="none" stroke="currentColor">
  <path stroke-linecap="round" stroke-linejoin="round" d="M3 3v1.5M3 21v-6m0 0l2.77-.693a9 9 0 016.208.682l.108.054a9 9 0 006.086.71l3.114-.732a48.524 48.524 0 01-.005-10.499l-3.11.732a9 9 0 01-6.085-.711l-.108-.054a9 9 0 00-6.208-.682L3 4.5M3 15V4.5" />
</symbol>

<symbol id="at-symbol" viewBox="0 0 24 24" fill="none" stroke="currentColor">
  <path stroke-linecap="round" d="M16.5 12a4.5 4.5 0 11-9 0 4.5 4.5 0 019 0zm0 0c0 1.657 1.007 3 2.25 3S21 13.657 21 12a9 9 0 10-2.636 6.364M16.5 12V8.25" />
</symbol>

<symbol id="backspace" viewBox="0 0 24 24" fill="none" stroke="currentColor">
  <path stroke-linecap="round" stroke-linejoin="round" d="M12 9.75L14.25 12m0 0l2.25 2.25M14.25 12l2.25-2.25M14.25 12L12 14.25m-2.58 4.92l-6.375-6.375a1.125 1.125 0 010-1.59L9.42 4.83c.211-.211.498-.33.796-.33H19.5a2.25 2.25 0 012.25 2.25v10.5a2.25 2.25 0 01-2.25 2.25h-9.284c-.298 0-.585-.119-.796-.33z" />
</symbol>

<symbol id="x" viewBox="0 0 24 24" fill="none" stroke="currentColor">
  <path stroke-linecap="round" stroke-linejoin="round" d="M6 18L18 6M6 6l12 12" />
</symbol>

<symbol id="x-circle" viewBox="0 0 24 24" fill="none" stroke="currentColor">
  <path stroke-linecap="round" stroke-linejoin="round" d="M9.75 9.75l4.5 4.5m0-4.5l-4.5 4.5M21 12a9 9 0 11-18 0 9 9 0 0118 0z" />
</symbol>




<!-- Phone -->

<symbol id="call-hangup" viewBox="0 0 24 24" fill="none" stroke="currentColor">
  <path stroke-linecap="round" stroke-linejoin="round" d="M14.25 9.75v-4.5m0 4.5h4.5m-4.5 0l6-6m-3 18c-8.284 0-15-6.716-15-15V4.5A2.25 2.25 0 014.5 2.25h1.372c.516 0 .966.351 1.091.852l1.106 4.423c.11.44-.054.902-.417 1.173l-1.293.97a1.062 1.062 0 00-.38 1.21 12.035 12.035 0 007.143 7.143c.441.162.928-.004 1.21-.38l.97-1.293a1.125 1.125 0 011.173-.417l4.423 1.106c.5.125.852.575.852 1.091V19.5a2.25 2.25 0 01-2.25 2.25h-2.25z" />
</symbol>

<symbol id="call-success" viewBox="0 0 24 24" fill="none" stroke="currentColor">
  <path stroke-linecap="round" stroke-linejoin="round" d="M20.25 3.75v4.5m0-4.5h-4.5m4.5 0l-6 6m3 12c-8.284 0-15-6.716-15-15V4.5A2.25 2.25 0 014.5 2.25h1.372c.516 0 .966.351 1.091.852l1.106 4.423c.11.44-.054.902-.417 1.173l-1.293.97a1.062 1.062 0 00-.38 1.21 12.035 12.035 0 007.143 7.143c.441.162.928-.004 1.21-.38l.97-1.293a1.125 1.125 0 011.173-.417l4.423 1.106c.5.125.852.575.852 1.091V19.5a2.25 2.25 0 01-2.25 2.25h-2.25z" />
</symbol>

<symbol id="call-missed" viewBox="0 0 24 24" fill="none" stroke="currentColor">
  <path stroke-linecap="round" stroke-linejoin="round" d="M15.75 3.75L18 6m0 0l2.25 2.25M18 6l2.25-2.25M18 6l-2.25 2.25m1.5 13.5c-8.284 0-15-6.716-15-15V4.5A2.25 2.25 0 014.5 2.25h1.372c.516 0 .966.351 1.091.852l1.106 4.423c.11.44-.054.902-.417 1.173l-1.293.97a1.062 1.062 0 00-.38 1.21 12.035 12.035 0 007.143 7.143c.441.162.928-.004 1.21-.38l.97-1.293a1.125 1.125 0 011.173-.417l4.423 1.106c.5.125.852.575.852 1.091V19.5a2.25 2.25 0 01-2.25 2.25h-2.25z" />
</symbol>

<symbol id="phone" viewBox="0 0 24 24" fill="none" stroke="currentColor">
  <path stroke-linecap="round" stroke-linejoin="round" d="M2.25 6.75c0 8.284 6.716 15 15 15h2.25a2.25 2.25 0 002.25-2.25v-1.372c0-.516-.351-.966-.852-1.091l-4.423-1.106c-.44-.11-.902.055-1.173.417l-.97 1.293c-.282.376-.769.542-1.21.38a12.035 12.035 0 01-7.143-7.143c-.162-.441.004-.928.38-1.21l1.293-.97c.363-.271.527-.734.417-1.173L6.963 3.102a1.125 1.125 0 00-1.091-.852H4.5A2.25 2.25 0 002.25 4.5v2.25z" />
</symbol>




<!-- Reactions -->

<symbol id="thumb-up" viewBox="0 0 24 24" fill="none" stroke="currentColor">
  <path stroke-linecap="round" stroke-linejoin="round" d="M6.633 10.5c.806 0 1.533-.446 2.031-1.08a9.041 9.041 0 012.861-2.4c.723-.384 1.35-.956 1.653-1.715a4.498 4.498 0 00.322-1.672V3a.75.75 0 01.75-.75A2.25 2.25 0 0116.5 4.5c0 1.152-.26 2.243-.723 3.218-.266.558.107 1.282.725 1.282h3.126c1.026 0 1.945.694 2.054 1.715.045.422.068.85.068 1.285a11.95 11.95 0 01-2.649 7.521c-.388.482-.987.729-1.605.729H13.48c-.483 0-.964-.078-1.423-.23l-3.114-1.04a4.501 4.501 0 00-1.423-.23H5.904M14.25 9h2.25M5.904 18.75c.083.205.173.405.27.602.197.4-.078.898-.523.898h-.908c-.889 0-1.713-.518-1.972-1.368a12 12 0 01-.521-3.507c0-1.553.295-3.036.831-4.398C3.387 10.203 4.167 9.75 5 9.75h1.053c.472 0 .745.556.5.96a8.958 8.958 0 00-1.302 4.665c0 1.194.232 2.333.654 3.375z" />
</symbol>

<symbol id="thumb-down" viewBox="0 0 24 24" fill="none" stroke="currentColor">
  <path stroke-linecap="round" stroke-linejoin="round" d="M7.5 15h2.25m8.024-9.75c.011.05.028.1.052.148.591 1.2.924 2.55.924 3.977a8.96 8.96 0 01-.999 4.125m.023-8.25c-.076-.365.183-.75.575-.75h.908c.889 0 1.713.518 1.972 1.368.339 1.11.521 2.287.521 3.507 0 1.553-.295 3.036-.831 4.398C20.613 14.547 19.833 15 19 15h-1.053c-.472 0-.745-.556-.5-.96a8.95 8.95 0 00.303-.54m.023-8.25H16.48a4.5 4.5 0 01-1.423-.23l-3.114-1.04a4.5 4.5 0 00-1.423-.23H6.504c-.618 0-1.217.247-1.605.729A11.95 11.95 0 002.25 12c0 .434.023.863.068 1.285C2.427 14.306 3.346 15 4.372 15h3.126c.618 0 .991.724.725 1.282A7.471 7.471 0 007.5 19.5a2.25 2.25 0 002.25 2.25.75.75 0 00.75-.75v-.633c0-.573.11-1.14.322-1.672.304-.76.93-1.33 1.653-1.715a9.04 9.04 0 002.86-2.4c.498-.634 1.226-1.08 2.032-1.08h.384" />
</symbol>




<!-- Social -->

<symbol id="chat-lined-text" viewBox="0 0 24 24" fill="none" stroke="currentColor">
  <path stroke-linecap="round" stroke-linejoin="round" d="M7.5 8.25h9m-9 3H12m-9.75 1.51c0 1.6 1.123 2.994 2.707 3.227 1.129.166 2.27.293 3.423.379.35.026.67.21.865.501L12 21l2.755-4.133a1.14 1.14 0 01.865-.501 48.172 48.172 0 003.423-.379c1.584-.233 2.707-1.626 2.707-3.228V6.741c0-1.602-1.123-2.995-2.707-3.228A48.394 48.394 0 0012 3c-2.392 0-4.744.175-7.043.513C3.373 3.746 2.25 5.14 2.25 6.741v6.018z" />
</symbol>

<symbol id="chat-dotted-text" viewBox="0 0 24 24" fill="none" stroke="currentColor">
  <path stroke-linecap="round" stroke-linejoin="round" d="M8.625 9.75a.375.375 0 11-.75 0 .375.375 0 01.75 0zm0 0H8.25m4.125 0a.375.375 0 11-.75 0 .375.375 0 01.75 0zm0 0H12m4.125 0a.375.375 0 11-.75 0 .375.375 0 01.75 0zm0 0h-.375m-13.5 3.01c0 1.6 1.123 2.994 2.707 3.227 1.087.16 2.185.283 3.293.369V21l4.184-4.183a1.14 1.14 0 01.778-.332 48.294 48.294 0 005.83-.498c1.585-.233 2.708-1.626 2.708-3.228V6.741c0-1.602-1.123-2.995-2.707-3.228A48.394 48.394 0 0012 3c-2.392 0-4.744.175-7.043.513C3.373 3.746 2.25 5.14 2.25 6.741v6.018z" />
</symbol>

<symbol id="chat-center-point" viewBox="0 0 24 24" fill="none" stroke="currentColor">
  <path stroke-linecap="round" stroke-linejoin="round" d="M2.25 12.76c0 1.6 1.123 2.994 2.707 3.227 1.068.157 2.148.279 3.238.364.466.037.893.281 1.153.671L12 21l2.652-3.978c.26-.39.687-.634 1.153-.67 1.09-.086 2.17-.208 3.238-.365 1.584-.233 2.707-1.626 2.707-3.228V6.741c0-1.602-1.123-2.995-2.707-3.228A48.394 48.394 0 0012 3c-2.392 0-4.744.175-7.043.513C3.373 3.746 2.25 5.14 2.25 6.741v6.018z" />
</symbol>

<symbol id="chat-left-point" viewBox="0 0 24 24" fill="none" stroke="currentColor">
  <path stroke-linecap="round" stroke-linejoin="round" d="M2.25 12.76c0 1.6 1.123 2.994 2.707 3.227 1.087.16 2.185.283 3.293.369V21l4.076-4.076a1.526 1.526 0 011.037-.443 48.282 48.282 0 005.68-.494c1.584-.233 2.707-1.626 2.707-3.228V6.741c0-1.602-1.123-2.995-2.707-3.228A48.394 48.394 0 0012 3c-2.392 0-4.744.175-7.043.513C3.373 3.746 2.25 5.14 2.25 6.741v6.018z" />
</symbol>

<symbol id="chat-round-empty" viewBox="0 0 24 24" fill="none" stroke="currentColor">
  <path stroke-linecap="round" stroke-linejoin="round" d="M12 20.25c4.97 0 9-3.694 9-8.25s-4.03-8.25-9-8.25S3 7.444 3 12c0 2.104.859 4.023 2.273 5.48.432.447.74 1.04.586 1.641a4.483 4.483 0 01-.923 1.785A5.969 5.969 0 006 21c1.282 0 2.47-.402 3.445-1.087.81.22 1.668.337 2.555.337z" />
</symbol>

<symbol id="chat-round-dotted" viewBox="0 0 24 24" fill="none" stroke="currentColor">
  <path stroke-linecap="round" stroke-linejoin="round" d="M8.625 12a.375.375 0 11-.75 0 .375.375 0 01.75 0zm0 0H8.25m4.125 0a.375.375 0 11-.75 0 .375.375 0 01.75 0zm0 0H12m4.125 0a.375.375 0 11-.75 0 .375.375 0 01.75 0zm0 0h-.375M21 12c0 4.556-4.03 8.25-9 8.25a9.764 9.764 0 01-2.555-.337A5.972 5.972 0 015.41 20.97a5.969 5.969 0 01-.474-.065 4.48 4.48 0 00.978-2.025c.09-.457-.133-.901-.467-1.226C3.93 16.178 3 14.189 3 12c0-4.556 4.03-8.25 9-8.25s9 3.694 9 8.25z" />
</symbol>

<!-- BRANDS -->

<symbol id="css3" viewBox="0 0 32 32">
<path fill="#1572b6" style="fill: var(--color1, #1572b6)" d="M2 0h28l-2.547 28.751-11.484 3.249-11.42-3.251zM24.787 5.884l-17.573-0.004 0.284 3.496 13.5 0.003-0.34 3.621h-8.853l0.32 3.431h8.243l-0.488 4.697-3.88 1.072-3.941-1.080-0.251-2.813h-3.48l0.387 5.14 7.287 2.271 7.164-2.040z"></path>
</symbol>

<symbol id="eslint" viewBox="0 0 32 32">
<path fill="#4b32c3" style="fill: var(--color2, #4b32c3)" d="M9.676 12.176l6.079-3.509c0.070-0.041 0.155-0.066 0.245-0.066s0.175 0.024 0.248 0.067l-0.002-0.001 6.079 3.509c0.148 0.087 0.245 0.245 0.245 0.426 0 0 0 0.001 0 0.001v-0 7.017c-0 0.181-0.098 0.338-0.243 0.424l-0.002 0.001-6.079 3.509c-0.070 0.041-0.155 0.066-0.245 0.066s-0.175-0.024-0.248-0.067l0.002 0.001-6.079-3.509c-0.148-0.087-0.245-0.245-0.245-0.426 0-0 0-0.001 0-0.001v0-7.016c0-0 0-0 0-0 0-0.181 0.098-0.339 0.243-0.425l0.002-0.001zM31.803 15.373l-7.261-12.633c-0.264-0.457-0.752-0.795-1.28-0.795h-14.521c-0.528 0-1.016 0.337-1.28 0.795l-7.261 12.605c-0.124 0.214-0.198 0.471-0.198 0.745s0.073 0.531 0.201 0.752l-0.004-0.007 7.263 12.531c0.263 0.456 0.751 0.689 1.279 0.689h14.524c0.527 0 1.013-0.227 1.279-0.683l7.261-12.551c0.124-0.207 0.198-0.457 0.198-0.724s-0.073-0.517-0.201-0.73l0.004 0.007zM25.791 21.448c-0.005 0.193-0.112 0.36-0.269 0.449l-0.003 0.001-9.252 5.336c-0.075 0.044-0.165 0.069-0.261 0.069s-0.186-0.026-0.264-0.071l0.003 0.001-9.257-5.336c-0.16-0.091-0.268-0.257-0.273-0.45l-0-0.001v-10.675c0-0.187 0.111-0.359 0.272-0.451l9.248-5.336c0.16-0.093 0.363-0.093 0.523 0l9.257 5.337c0.161 0.090 0.269 0.257 0.275 0.45l0 0.001z"></path>
</symbol>

<symbol id="html5" viewBox="0 0 32 32">
<path fill="#e34f26" style="fill: var(--color3, #e34f26)" d="M2 0h28l-2.547 28.751-11.484 3.249-11.419-3.251zM11.375 13l-0.309-3.624 13.412 0.004 0.307-3.496-17.568-0.004 0.931 10.68h12.168l-0.435 4.568-3.88 1.072-3.94-1.080-0.251-2.813h-3.479l0.44 5.561 7.229 1.933 7.172-1.924 0.992-10.876z"></path>
</symbol>

<symbol id="javascript" viewBox="0 0 32 32">
<path fill="#f7df1e" style="fill: var(--color4, #f7df1e)" d="M0 0h32v32h-32zM29.379 24.368c-0.233-1.46-1.184-2.687-4.004-3.831-0.981-0.46-2.072-0.78-2.396-1.52-0.121-0.44-0.14-0.68-0.061-0.94 0.2-0.861 1.22-1.12 2.020-0.88 0.52 0.16 1 0.56 1.301 1.2 1.379-0.901 1.379-0.901 2.34-1.5-0.36-0.56-0.539-0.801-0.781-1.040-0.84-0.94-1.959-1.42-3.779-1.379l-0.94 0.119c-0.901 0.22-1.76 0.7-2.28 1.34-1.52 1.721-1.081 4.721 0.759 5.961 1.82 1.36 4.481 1.659 4.821 2.94 0.32 1.56-1.16 2.060-2.621 1.88-1.081-0.24-1.68-0.781-2.34-1.781l-2.44 1.401c0.28 0.64 0.6 0.919 1.080 1.479 2.32 2.341 8.12 2.221 9.161-1.339 0.039-0.12 0.32-0.94 0.099-2.2zM17.401 14.708h-2.997c0 2.584-0.012 5.152-0.012 7.74 0 1.643 0.084 3.151-0.184 3.615-0.44 0.919-1.573 0.801-2.088 0.64-0.528-0.261-0.796-0.621-1.107-1.14-0.084-0.14-0.147-0.261-0.169-0.261l-2.433 1.5c0.407 0.84 1 1.563 1.765 2.023 1.14 0.68 2.672 0.9 4.276 0.54 1.044-0.301 1.944-0.921 2.415-1.881 0.68-1.24 0.536-2.76 0.529-4.461 0.016-2.739 0-5.479 0-8.239z"></path>
</symbol>

<symbol id="sass" viewBox="0 0 32 32">
<path fill="#c69" style="fill: var(--color5, #c69)" d="M16 0c8.836 0 16 7.164 16 16s-7.164 16-16 16-16-7.164-16-16 7.164-16 16-16zM12.82 21.331c0.233 0.86 0.208 1.664-0.032 2.389l-0.087 0.24c-0.032 0.081-0.069 0.16-0.104 0.235-0.187 0.387-0.435 0.747-0.74 1.080-0.931 1.012-2.229 1.396-2.787 1.073-0.6-0.349-0.301-1.78 0.779-2.92 1.161-1.224 2.827-2.012 2.827-2.012v-0.004zM26.035 6.849c-0.723-2.844-5.436-3.779-9.896-2.193-2.652 0.943-5.525 2.424-7.591 4.356-2.457 2.295-2.848 4.295-2.687 5.131 0.569 2.948 4.609 4.876 6.271 6.307v0.008c-0.489 0.24-4.075 2.039-4.915 3.9-0.9 1.96 0.14 3.361 0.82 3.54 2.1 0.581 4.26-0.48 5.42-2.199 1.12-1.681 1.021-3.841 0.539-4.901 0.661-0.18 1.44-0.26 2.44-0.139 2.801 0.32 3.361 2.080 3.24 2.8-0.12 0.719-0.697 1.139-0.899 1.259-0.2 0.121-0.26 0.16-0.241 0.241 0.020 0.12 0.121 0.12 0.28 0.1 0.22-0.040 1.461-0.6 1.521-1.961 0.060-1.72-1.581-3.639-4.5-3.6-1.2 0.021-1.961 0.121-2.5 0.341-0.040-0.060-0.081-0.1-0.14-0.14-1.8-1.94-5.14-3.3-5-5.88 0.040-0.94 0.38-3.419 6.4-6.419 4.94-2.461 8.881-1.78 9.561-0.28 0.977 2.139-2.101 6.12-7.241 6.699-1.96 0.22-2.98-0.539-3.241-0.82-0.279-0.3-0.319-0.32-0.419-0.259-0.16 0.080-0.060 0.34 0 0.5 0.16 0.4 0.78 1.1 1.861 1.46 0.939 0.3 3.24 0.479 6-0.6 3.099-1.199 5.519-4.54 4.819-7.34z"></path>
</symbol>

<symbol id="tailwindcss" viewBox="0 0 32 32">
<path fill="#38b2ac" style="fill: var(--color6, #38b2ac)" d="M16.001 6.4c-4.267 0-6.933 2.133-8 6.4 1.6-2.133 3.467-2.933 5.6-2.4 1.217 0.304 2.087 1.187 3.051 2.165 1.569 1.592 3.384 3.435 7.349 3.435 4.267 0 6.933-2.133 8-6.4-1.6 2.133-3.467 2.933-5.6 2.4-1.217-0.304-2.087-1.187-3.051-2.165-1.568-1.592-3.383-3.435-7.349-3.435zM8.001 16c-4.267 0-6.933 2.133-8 6.4 1.6-2.133 3.467-2.933 5.6-2.4 1.217 0.304 2.087 1.187 3.051 2.165 1.569 1.592 3.384 3.435 7.349 3.435 4.267 0 6.933-2.133 8-6.4-1.6 2.133-3.467 2.933-5.6 2.4-1.217-0.304-2.087-1.187-3.051-2.165-1.568-1.592-3.383-3.435-7.349-3.435z"></path>
</symbol>

<symbol id="typescript" viewBox="0 0 32 32">
<path fill="#007acc" style="fill: var(--color7, #007acc)" d="M0 16v16h32v-32h-32zM25.788 14.725c0.813 0.203 1.432 0.564 2.001 1.153 0.295 0.315 0.732 0.888 0.767 1.027 0.011 0.040-1.381 0.973-2.224 1.497-0.031 0.020-0.153-0.112-0.289-0.315-0.413-0.6-0.844-0.859-1.504-0.904-0.971-0.067-1.595 0.441-1.589 1.289-0.001 0.015-0.001 0.032-0.001 0.050 0 0.201 0.051 0.391 0.14 0.557l-0.003-0.006c0.213 0.441 0.611 0.707 1.853 1.244 2.292 0.987 3.272 1.636 3.881 2.56 0.68 1.031 0.833 2.677 0.371 3.901-0.507 1.331-1.767 2.235-3.54 2.533-0.548 0.097-1.848 0.083-2.437-0.024-1.285-0.229-2.504-0.864-3.256-1.697-0.295-0.324-0.869-1.173-0.833-1.233 0.015-0.021 0.147-0.103 0.293-0.188 0.144-0.081 0.681-0.392 1.189-0.687l0.92-0.533 0.193 0.285c0.269 0.411 0.857 0.975 1.213 1.163 1.021 0.539 2.423 0.463 3.113-0.157 0.257-0.217 0.419-0.54 0.419-0.9 0-0.021-0.001-0.042-0.002-0.062l0 0.003c0-0.371-0.047-0.533-0.24-0.813-0.248-0.355-0.756-0.653-2.199-1.28-1.651-0.711-2.361-1.152-3.012-1.853-0.392-0.445-0.694-0.981-0.871-1.57l-0.008-0.030c-0.121-0.452-0.152-1.585-0.056-2.041 0.34-1.596 1.544-2.707 3.281-3.037 0.564-0.107 1.875-0.067 2.428 0.071zM18.276 16.061l0.011 1.311h-4.167v11.835h-2.947v-11.835h-4.163v-1.285c0-0.712 0.015-1.307 0.035-1.32 0.016-0.021 2.551-0.032 5.623-0.027l5.593 0.016z"></path>
</symbol>

<symbol id="webpack" viewBox="0 0 32 32">
<path fill="#8dd6f9" style="fill: var(--color8, #8dd6f9)" d="M28.021 24.16l-11.553 6.506v-5.068l7.198-3.942zM28.811 23.448v-13.607l-4.228 2.429v8.746zM3.901 24.16l11.553 6.506v-5.068l-7.198-3.942zM3.111 23.448v-13.607l4.228 2.429v8.746zM3.605 8.96l11.849-6.674v4.9l-7.649 4.19zM28.317 8.96l-11.849-6.674v4.9l7.649 4.19zM15.454 24.446l-7.102-3.887v-7.703l7.101 4.083zM16.468 24.446l7.101-3.887v-7.703l-7.101 4.083zM8.833 11.965l7.129-3.904 7.129 3.904-7.129 4.099z"></path>
</symbol>

<symbol id="bootstrap" viewBox="0 0 32 32">
<path fill="#563d7c" style="fill: var(--color1, #563d7c)" d="M26.667 0h-21.333c-2.943 0.008-5.325 2.391-5.333 5.333v21.333c0 2.933 2.4 5.333 5.333 5.333h21.333c2.933 0 5.333-2.4 5.333-5.333v-21.333c0-2.933-2.4-5.333-5.333-5.333zM23.751 22.473c-0.267 0.643-0.689 1.209-1.231 1.645-0.56 0.453-1.269 0.827-2.143 1.093-0.872 0.271-1.909 0.407-3.111 0.407h-8.576v-18.667h9.069c1.677 0 3.021 0.377 4.027 1.147 1.013 0.773 1.517 1.925 1.517 3.48 0 0.94-0.229 1.747-0.691 2.413-0.459 0.663-1.12 1.181-1.973 1.541v0.061c1.139 0.24 2.020 0.78 2.6 1.62s0.877 1.901 0.877 3.183c0 0.717-0.139 1.4-0.4 2.037zM20.049 17.873c-0.547-0.5-1.315-0.744-2.307-0.744h-5.763v5.824h5.779c0.987 0 1.76-0.256 2.307-0.773 0.547-0.513 0.827-1.245 0.827-2.187-0.009-0.92-0.28-1.632-0.827-2.12zM19.249 14.109c0.528-0.448 0.787-1.089 0.787-1.925 0-0.939-0.233-1.605-0.707-1.987-0.469-0.38-1.147-0.577-2.037-0.577h-5.333v5.151h5.333c0.777 0 1.44-0.227 1.957-0.661z"></path>
</symbol>

<symbol id="django" viewBox="0 0 32 32">
<path d="M14.861 0h5.232v24.22c-2.684 0.509-4.655 0.713-6.795 0.713-6.388 0-9.717-2.888-9.717-8.427 0-5.335 3.533-8.8 9.004-8.8 0.849 0 1.495 0.068 2.276 0.272zM14.861 12.191c-0.496-0.173-1.067-0.273-1.662-0.273-0.037 0-0.074 0-0.111 0.001l0.005-0c-2.651 0-4.179 1.631-4.179 4.485 0 2.787 1.461 4.315 4.145 4.315 0.577 0 1.053-0.033 1.8-0.136zM28.419 8.080v12.129c0 4.179-0.305 6.184-1.223 7.916-0.849 1.665-1.971 2.719-4.281 3.873l-4.859-2.311c2.311-1.087 3.432-2.039 4.145-3.5 0.748-1.495 0.985-3.228 0.985-7.78v-10.329zM23.187 0.028h5.232v5.368h-5.232z"></path>
</symbol>

<symbol id="mongodb" viewBox="0 0 32 32">
<path fill="#47a248" style="fill: var(--color6, #47a248)" d="M22.907 12.691c-1.684-7.413-5.656-9.849-6.083-10.781-0.469-0.657-0.977-1.909-0.977-1.909-0.003 0.025-0.005 0.041-0.007 0.065v0.017h-0.001c-0.003 0.020-0.004 0.033-0.005 0.052v0.020h-0.003c0 0.013-0.003 0.024-0.003 0.035v0.035h-0.004c-0.001 0.011-0.001 0.024-0.004 0.033v0.028h-0.003c0 0.009 0 0.020-0.003 0.028v0.027h-0.003c0 0.013-0.001 0.029-0.003 0.043v0.003c-0.004 0.023-0.008 0.045-0.012 0.067v0.011h-0.003c-0.001 0.005-0.004 0.011-0.004 0.016v0.023h-0.004v0.029h-0.007v0.024h-0.007v0.028h-0.005v0.025h-0.005v0.023h-0.008v0.019h-0.005v0.024h-0.005v0.019h-0.007v0.017h-0.004v0.020h-0.005c-0.001 0.001-0.001 0.004-0.001 0.005v0.013h-0.004c-0.001 0.003-0.001 0.005-0.001 0.008v0.008h-0.003c-0.001 0.004-0.003 0.011-0.003 0.013-0.004 0.009-0.009 0.019-0.013 0.028v0.003c-0.003 0.003-0.005 0.007-0.007 0.009v0.011h-0.005v0.011h-0.007v0.011h-0.004v0.013h-0.008v0.019h-0.005v0.005h-0.005v0.011h-0.005v0.015h-0.005v0.011h-0.008v0.015h-0.005v0.011h-0.007v0.011h-0.004v0.013h-0.007v0.011h-0.005v0.008h-0.005v0.011h-0.008v0.012h-0.005v0.008h-0.007v0.011h-0.005v0.015h-0.007v0.005h-0.004v0.011h-0.008v0.005h-0.005v0.013h-0.005v0.005h-0.005v0.011h-0.007v0.008h-0.004l-0.003 0.005v0.005h-0.003c-0.001 0.003-0.003 0.003-0.003 0.005v0.001h-0.001c-0.001 0.004-0.003 0.007-0.005 0.009v0.004h-0.001c-0.007 0.008-0.011 0.016-0.016 0.024v0.001c-0.003 0.003-0.009 0.008-0.012 0.013v0.003h-0.001c-0.001 0.001-0.004 0.003-0.004 0.004v0.004h-0.003l-0.004 0.004v0.001h-0.001c0 0.001-0.003 0.003-0.004 0.005v0.005h-0.004l-0.003 0.003v0.003h-0.003c0 0.003-0.003 0.003-0.003 0.004v0.004h-0.005c0 0.001-0.001 0.003-0.003 0.004v0.008h-0.004v0.005h-0.005v0.008h-0.005v0.011h-0.007v-0.011h-0.007v0.005h-0.005v0.008h-0.007v0.011h-0.007v0.005h-0.005v0.008h-0.005v0.005h-0.005v0.011h-0.008v0.005h-0.005v0.008h-0.007v0.005h-0.005v0.007h-0.007v0.013h-0.003v0.005h-0.008v0.007h-0.005v0.003h-0.005v0.005h-0.007v0.013h-0.005v0.005h-0.007v0.005h-0.005v0.008h-0.007v0.005h-0.007v0.005h-0.005v0.005h-0.005v0.013h-0.005v0.007h-0.008v0.005h-0.005v0.005h-0.007v0.008h-0.005v0.005h-0.007v0.009h-0.005v0.005h-0.008v0.008h-0.003v0.005h-0.005v0.005h-0.007v0.005h-0.005v0.008h-0.007v0.005h-0.004c-0.001 0.001-0.001 0.003-0.001 0.003v0.003h-0.003l-0.005 0.005c0 0-0.003 0.003-0.005 0.004v0.008h-0.005v0.007h-0.005v0.005h-0.005v0.005h-0.004l-0.004 0.004v0.004h-0.003l-0.003 0.003v0.004h-0.003c-0.007 0.008-0.009 0.013-0.019 0.021-0.003 0.003-0.011 0.009-0.016 0.013-0.016 0.011-0.036 0.028-0.052 0.043-0.011 0.007-0.021 0.016-0.029 0.023v0.001h-0.001c-0.021 0.017-0.041 0.033-0.065 0.052v0.001c-0.032 0.027-0.063 0.052-0.099 0.083v-0.001h-0.003c-0.076 0.063-0.156 0.133-0.248 0.212v0.001h-0.001c-0.225 0.197-0.493 0.451-0.793 0.757l-0.025 0.025c-1.813 1.876-4.671 5.785-4.972 12.103-0.027 0.523-0.021 1.031 0.008 1.525v0.012c0.145 2.489 0.927 4.615 1.904 6.341v0.001c0.389 0.688 0.809 1.313 1.235 1.873v0.001c1.469 1.94 2.969 3.089 3.352 3.368 0.588 1.364 0.533 3.705 0.533 3.705l0.859 0.287c0 0-0.175-2.268 0.071-3.363 0.076-0.343 0.256-0.635 0.465-0.883 0.141-0.1 0.56-0.401 1.063-0.86 0.024-0.025 0.037-0.048 0.059-0.072 2.028-1.891 5.816-6.547 4.517-14.132z"></path>
</symbol>

<symbol id="nodejs" viewBox="0 0 32 32">
<path fill="#393" style="fill: var(--color7, #393)" d="M15.997 32c-0.428 0-0.855-0.112-1.229-0.329l-3.915-2.316c-0.584-0.327-0.299-0.443-0.107-0.511 0.78-0.271 0.937-0.333 1.771-0.805 0.087-0.049 0.201-0.031 0.291 0.023l3.008 1.785c0.109 0.060 0.263 0.060 0.363 0l11.727-6.768c0.109-0.063 0.179-0.188 0.179-0.317v-13.533c0-0.132-0.071-0.256-0.183-0.323l-11.721-6.763c-0.108-0.063-0.252-0.063-0.361 0l-11.719 6.764c-0.113 0.065-0.185 0.193-0.185 0.321v13.533c0 0.129 0.072 0.252 0.185 0.313l3.212 1.856c1.743 0.872 2.811-0.155 2.811-1.187v-13.361c0-0.189 0.152-0.337 0.341-0.337h1.487c0.185 0 0.34 0.149 0.34 0.337v13.361c0 2.327-1.267 3.66-3.472 3.66-0.677 0-1.212 0-2.701-0.735l-3.077-1.769c-0.76-0.439-1.229-1.26-1.229-2.139v-13.533c0-0.879 0.471-1.7 1.229-2.137l11.727-6.776c0.743-0.42 1.728-0.42 2.464 0l11.725 6.776c0.76 0.439 1.232 1.259 1.232 2.137v13.533c0 0.879-0.472 1.697-1.232 2.139l-11.725 6.771c-0.373 0.217-0.799 0.329-1.233 0.329zM25.465 18.657c0-2.533-1.712-3.208-5.316-3.684-3.641-0.481-4.012-0.731-4.012-1.583 0-0.704 0.313-1.644 3.011-1.644 2.409 0 3.297 0.519 3.663 2.143 0.032 0.153 0.172 0.265 0.329 0.265h1.521c0.095 0 0.184-0.041 0.248-0.108 0.064-0.072 0.099-0.164 0.089-0.261-0.236-2.797-2.095-4.101-5.851-4.101-3.344 0-5.339 1.411-5.339 3.777 0 2.567 1.984 3.276 5.193 3.593 3.84 0.376 4.137 0.937 4.137 1.692 0 1.311-1.052 1.869-3.523 1.869-3.103 0-3.785-0.779-4.015-2.323-0.027-0.165-0.168-0.287-0.337-0.287h-1.516c-0.188 0-0.339 0.149-0.339 0.337 0 1.976 1.075 4.331 6.207 4.331 3.717 0.001 5.848-1.461 5.848-4.017z"></path>
</symbol>

<symbol id="npm" viewBox="0 0 32 32">
<path fill="#cb3837" style="fill: var(--color8, #cb3837)" d="M0 9.779v10.667h8.888v1.776h7.112v-1.776h16v-10.667zM8.888 18.664h-1.776v-5.333h-1.78v5.333h-3.552v-7.108h7.108zM14.221 18.664v1.781h-3.553v-8.889h7.112v7.109h-3.559zM30.223 18.664h-1.773v-5.333h-1.781v5.333h-1.78v-5.333h-1.773v5.333h-3.561v-7.108h10.669zM14.22 13.333h1.78v3.556h-1.78z"></path>
</symbol>

<symbol id="python" viewBox="0 0 32 32">
<path fill="#3776ab" style="fill: var(--color9, #3776ab)" d="M19.080 0.24l1.2 0.267 0.973 0.347 0.787 0.4 0.6 0.427 0.453 0.453 0.333 0.453 0.213 0.44 0.133 0.4 0.053 0.347 0.027 0.267-0.013 0.173v7.12l-0.067 0.84-0.173 0.733-0.28 0.613-0.347 0.507-0.4 0.413-0.44 0.333-0.467 0.253-0.467 0.187-0.44 0.133-0.4 0.093-0.347 0.053-0.28 0.027h-7.96l-0.92 0.067-0.787 0.187-0.667 0.293-0.547 0.36-0.44 0.427-0.36 0.467-0.267 0.48-0.2 0.493-0.133 0.467-0.093 0.427-0.053 0.36-0.027 0.28v4.080h-2.973l-0.28-0.040-0.373-0.093-0.427-0.16-0.467-0.24-0.48-0.347-0.48-0.48-0.467-0.613-0.427-0.787-0.373-0.973-0.28-1.173-0.187-1.4-0.067-1.64 0.080-1.627 0.213-1.387 0.32-1.16 0.427-0.947 0.48-0.76 0.533-0.587 0.56-0.44 0.56-0.32 0.533-0.213 0.48-0.133 0.427-0.067 0.32-0.013h0.213l0.080 0.013h10.88v-1.107h-7.787l-0.013-3.667-0.027-0.493 0.067-0.453 0.147-0.413 0.227-0.373 0.333-0.347 0.413-0.307 0.507-0.267 0.587-0.24 0.68-0.2 0.773-0.16 0.853-0.133 0.947-0.080 1.027-0.053 1.12-0.027 1.693 0.067zM10.68 2.88l-0.307 0.44-0.107 0.547 0.107 0.547 0.307 0.453 0.44 0.293 0.547 0.12 0.547-0.12 0.44-0.293 0.307-0.453 0.107-0.547-0.107-0.547-0.307-0.44-0.44-0.293-0.547-0.12-0.547 0.12zM28.133 8.147l0.373 0.080 0.427 0.16 0.467 0.24 0.48 0.36 0.48 0.467 0.467 0.627 0.427 0.787 0.373 0.973 0.28 1.173 0.187 1.387 0.067 1.64-0.080 1.64-0.213 1.387-0.32 1.147-0.427 0.947-0.48 0.76-0.533 0.6-0.56 0.44-0.56 0.32-0.533 0.213-0.48 0.12-0.427 0.067-0.32 0.027-0.213-0.013h-10.96v1.093h7.787l0.013 3.68 0.027 0.48-0.067 0.453-0.147 0.413-0.227 0.387-0.333 0.333-0.413 0.32-0.507 0.267-0.587 0.227-0.68 0.2-0.773 0.173-0.853 0.12-0.947 0.093-1.027 0.053-1.12 0.013-1.693-0.053-1.427-0.187-1.2-0.267-0.973-0.333-0.787-0.4-0.6-0.44-0.453-0.453-0.333-0.453-0.213-0.44-0.133-0.4-0.053-0.333-0.027-0.267 0.013-0.173v-7.12l0.067-0.853 0.173-0.72 0.28-0.613 0.347-0.507 0.4-0.427 0.44-0.32 0.467-0.267 0.467-0.187 0.44-0.133 0.4-0.080 0.347-0.053 0.28-0.027 0.173-0.013h7.787l0.92-0.067 0.787-0.187 0.667-0.28 0.547-0.373 0.44-0.427 0.36-0.467 0.267-0.48 0.2-0.48 0.133-0.467 0.093-0.427 0.053-0.373 0.027-0.28v-4.080h2.787l0.187 0.013zM19.507 27.147l-0.307 0.44-0.107 0.547 0.107 0.547 0.307 0.44 0.44 0.307 0.547 0.107 0.547-0.107 0.44-0.307 0.307-0.44 0.107-0.547-0.107-0.547-0.307-0.44-0.44-0.307-0.547-0.107-0.547 0.107z"></path>
</symbol>

<symbol id="react" viewBox="0 0 32 32">
<path fill="#61dafb" style="fill: var(--color10, #61dafb)" d="M16 13.148c-1.575 0-2.852 1.277-2.852 2.852s1.277 2.852 2.852 2.852v0c1.575 0 2.852-1.277 2.852-2.852s-1.277-2.852-2.852-2.852v0zM8.011 21.673l-0.629-0.16c-4.691-1.185-7.381-3.197-7.381-5.519s2.691-4.333 7.381-5.519l0.629-0.159 0.177 0.624c0.545 1.86 1.163 3.443 1.899 4.957l-0.082-0.186 0.135 0.284-0.135 0.284c-0.656 1.329-1.275 2.912-1.761 4.551l-0.056 0.22zM7.089 11.933c-3.565 1.001-5.753 2.533-5.753 4.061 0 1.527 2.188 3.059 5.753 4.061 0.512-1.62 1.046-2.965 1.662-4.263l-0.086 0.202c-0.531-1.098-1.066-2.443-1.511-3.828l-0.065-0.234zM23.989 21.673l-0.177-0.625c-0.544-1.859-1.162-3.441-1.9-4.954l0.081 0.184-0.135-0.284 0.135-0.284c0.656-1.329 1.275-2.911 1.762-4.55l0.056-0.221 0.177-0.624 0.631 0.159c4.689 1.185 7.38 3.197 7.38 5.52s-2.691 4.333-7.38 5.519zM23.335 15.995c0.64 1.385 1.169 2.747 1.576 4.061 3.567-1.003 5.753-2.535 5.753-4.061 0-1.528-2.188-3.059-5.753-4.061-0.511 1.619-1.045 2.963-1.662 4.262l0.086-0.2zM7.080 11.927l-0.177-0.623c-1.319-4.648-0.919-7.979 1.097-9.141 1.977-1.141 5.152 0.207 8.479 3.621l0.453 0.465-0.453 0.465c-1.146 1.19-2.207 2.482-3.162 3.853l-0.068 0.103-0.18 0.257-0.313 0.027c-1.875 0.151-3.596 0.439-5.264 0.86l0.218-0.047zM9.608 3.087c-0.357 0-0.673 0.077-0.94 0.231-1.325 0.764-1.56 3.42-0.647 7.004 1.21-0.285 2.681-0.521 4.18-0.658l0.131-0.010c0.894-1.264 1.792-2.37 2.756-3.414l-0.020 0.022c-2.080-2.025-4.049-3.175-5.46-3.175zM22.393 30.236c-0.001 0-0.001 0 0 0-1.9 0-4.34-1.431-6.872-4.031l-0.453-0.465 0.453-0.465c1.146-1.19 2.206-2.482 3.16-3.854l0.068-0.103 0.18-0.257 0.312-0.027c1.875-0.15 3.597-0.438 5.267-0.858l-0.218 0.046 0.629-0.159 0.179 0.624c1.316 4.645 0.917 7.977-1.099 9.139-0.449 0.259-0.988 0.411-1.562 0.411-0.016 0-0.031-0-0.047-0l0.002 0zM16.932 25.728c2.080 2.025 4.049 3.175 5.46 3.175h0.001c0.356 0 0.673-0.077 0.939-0.231 1.325-0.764 1.561-3.421 0.647-7.005-1.212 0.286-2.682 0.522-4.182 0.658l-0.13 0.010c-0.893 1.265-1.791 2.371-2.755 3.416l0.020-0.022zM24.92 11.927l-0.629-0.159c-1.453-0.376-3.175-0.664-4.939-0.806l-0.111-0.007-0.312-0.027-0.18-0.257c-1.021-1.474-2.082-2.766-3.237-3.966l0.009 0.010-0.453-0.465 0.453-0.465c3.325-3.413 6.499-4.761 8.479-3.621 2.016 1.163 2.416 4.493 1.099 9.14zM19.667 9.653c1.523 0.139 2.969 0.364 4.312 0.668 0.915-3.584 0.679-6.24-0.647-7.004-1.317-0.761-3.793 0.405-6.4 2.944 0.943 1.022 1.841 2.128 2.666 3.289l0.069 0.103zM9.608 30.236c-0.014 0-0.030 0-0.046 0-0.574 0-1.113-0.152-1.577-0.419l0.015 0.008c-2.016-1.161-2.416-4.492-1.097-9.139l0.176-0.624 0.629 0.159c1.54 0.388 3.239 0.661 5.047 0.812l0.313 0.027 0.179 0.257c1.022 1.475 2.083 2.767 3.239 3.967l-0.010-0.010 0.453 0.465-0.453 0.465c-2.531 2.6-4.971 4.031-6.868 4.031zM8.021 21.667c-0.915 3.584-0.679 6.241 0.647 7.005 1.316 0.751 3.791-0.407 6.4-2.944-0.943-1.022-1.841-2.129-2.667-3.29l-0.069-0.103c-1.629-0.146-3.099-0.382-4.534-0.711l0.224 0.043zM16 22.504c-1.097 0-2.225-0.048-3.355-0.141l-0.313-0.027-0.18-0.257c-0.544-0.768-1.139-1.691-1.697-2.639l-0.103-0.19c-0.452-0.758-0.971-1.732-1.45-2.728l-0.105-0.243-0.133-0.284 0.133-0.284c0.584-1.239 1.102-2.212 1.658-3.161l-0.103 0.191c0.552-0.955 1.159-1.907 1.8-2.829l0.18-0.257 0.313-0.027c1.005-0.090 2.174-0.142 3.355-0.142s2.35 0.052 3.505 0.153l-0.15-0.011 0.312 0.027 0.179 0.257c1.177 1.666 2.294 3.567 3.252 5.56l0.104 0.24 0.135 0.284-0.135 0.284c-1.058 2.232-2.176 4.133-3.439 5.925l0.083-0.125-0.179 0.257-0.312 0.027c-1.129 0.093-2.259 0.141-3.356 0.141zM13.071 21.059c1.973 0.148 3.885 0.148 5.86 0 1.004-1.445 1.978-3.104 2.827-4.836l0.101-0.228c-0.947-1.958-1.922-3.617-3.012-5.19l0.083 0.126c-0.877-0.071-1.898-0.111-2.929-0.111s-2.052 0.040-3.063 0.119l0.134-0.008c-1.008 1.447-1.983 3.106-2.83 4.84l-0.099 0.224c0.951 1.96 1.926 3.619 3.014 5.193l-0.085-0.13z"></path>
</symbol>

<symbol id="github" viewBox="0 0 32 32">
<path d="M16 0.396c-8.84 0-16 7.164-16 16 0 7.071 4.584 13.067 10.94 15.18 0.8 0.151 1.093-0.344 1.093-0.769 0-0.38-0.013-1.387-0.020-2.72-4.451 0.965-5.389-2.147-5.389-2.147-0.728-1.847-1.78-2.34-1.78-2.34-1.449-0.992 0.112-0.972 0.112-0.972 1.607 0.112 2.451 1.648 2.451 1.648 1.427 2.447 3.745 1.74 4.66 1.331 0.144-1.035 0.556-1.74 1.013-2.14-3.553-0.4-7.288-1.776-7.288-7.907 0-1.747 0.62-3.173 1.647-4.293-0.18-0.404-0.72-2.031 0.14-4.235 0 0 1.34-0.429 4.4 1.64 1.28-0.356 2.64-0.532 4-0.54 1.36 0.008 2.72 0.184 4 0.54 3.040-2.069 4.38-1.64 4.38-1.64 0.86 2.204 0.32 3.831 0.16 4.235 1.020 1.12 1.64 2.547 1.64 4.293 0 6.147-3.74 7.5-7.3 7.893 0.56 0.48 1.080 1.461 1.080 2.96 0 2.141-0.020 3.861-0.020 4.381 0 0.42 0.28 0.92 1.1 0.76 6.401-2.099 10.981-8.099 10.981-15.159 0-8.836-7.164-16-16-16z"></path>
</symbol>

<symbol id="twitter" viewBox="0 0 32 32">
<path fill="#1da1f2" style="fill: var(--color1, #1da1f2)" d="M31.939 6.092c-1.18 0.519-2.44 0.872-3.767 1.033 1.352-0.815 2.392-2.099 2.884-3.631-1.268 0.74-2.673 1.279-4.169 1.579-1.195-1.279-2.897-2.079-4.788-2.079-3.623 0-6.56 2.937-6.56 6.556 0 0.52 0.060 1.020 0.169 1.499-5.453-0.257-10.287-2.876-13.521-6.835-0.569 0.963-0.888 2.081-0.888 3.3 0 2.28 1.16 4.284 2.917 5.461-1.076-0.035-2.088-0.331-2.971-0.821v0.081c0 3.18 2.257 5.832 5.261 6.436-0.551 0.148-1.132 0.228-1.728 0.228-0.419 0-0.82-0.040-1.221-0.115 0.841 2.604 3.26 4.503 6.139 4.556-2.24 1.759-5.079 2.807-8.136 2.807-0.52 0-1.039-0.031-1.56-0.089 2.919 1.859 6.357 2.945 10.076 2.945 12.072 0 18.665-9.995 18.665-18.648 0-0.279 0-0.56-0.020-0.84 1.281-0.919 2.4-2.080 3.28-3.397z"></path>
</symbol>

</defs>
</svg>